<mxfile host="app.diagrams.net" modified="2023-12-19T08:26:16.148Z" agent="Mozilla/5.0 (Windows NT 10.0; Win64; x64) AppleWebKit/537.36 (KHTML, like Gecko) Chrome/120.0.0.0 Safari/537.36" etag="2r6moEI2O2czvjboRmwO" version="22.1.11" type="github">
  <diagram name="第 1 页" id="KWasOtkGla4huWQWOD4v">
    <mxGraphModel dx="2120" dy="670" grid="1" gridSize="10" guides="1" tooltips="1" connect="1" arrows="1" fold="1" page="1" pageScale="1" pageWidth="827" pageHeight="1169" math="0" shadow="0">
      <root>
        <mxCell id="0" />
        <mxCell id="1" parent="0" />
        <mxCell id="gmuw4k_-zvjLaqUktoZQ-31" value="Legacy System" style="swimlane;startSize=50;fontSize=23;" vertex="1" parent="1">
          <mxGeometry x="-280" y="170" width="360" height="460" as="geometry">
            <mxRectangle x="-280" y="170" width="210" height="50" as="alternateBounds" />
          </mxGeometry>
        </mxCell>
        <mxCell id="gmuw4k_-zvjLaqUktoZQ-9" value="Legacy System" style="rounded=0;whiteSpace=wrap;html=1;" vertex="1" parent="gmuw4k_-zvjLaqUktoZQ-31">
          <mxGeometry x="20" y="190" width="120" height="60" as="geometry" />
        </mxCell>
        <mxCell id="gmuw4k_-zvjLaqUktoZQ-10" value="Client Web Service" style="rounded=0;whiteSpace=wrap;html=1;" vertex="1" parent="gmuw4k_-zvjLaqUktoZQ-31">
          <mxGeometry x="200" y="190" width="120" height="60" as="geometry" />
        </mxCell>
        <mxCell id="gmuw4k_-zvjLaqUktoZQ-17" style="edgeStyle=orthogonalEdgeStyle;rounded=0;orthogonalLoop=1;jettySize=auto;html=1;" edge="1" parent="gmuw4k_-zvjLaqUktoZQ-31" source="gmuw4k_-zvjLaqUktoZQ-10" target="gmuw4k_-zvjLaqUktoZQ-9">
          <mxGeometry relative="1" as="geometry" />
        </mxCell>
        <mxCell id="gmuw4k_-zvjLaqUktoZQ-28" value="Middleware" style="swimlane;fontSize=23;startSize=50;" vertex="1" parent="1">
          <mxGeometry x="100" y="170" width="500" height="460" as="geometry">
            <mxRectangle x="100" y="170" width="170" height="50" as="alternateBounds" />
          </mxGeometry>
        </mxCell>
        <mxCell id="gmuw4k_-zvjLaqUktoZQ-21" value="Temp RDB" style="shape=cylinder3;whiteSpace=wrap;html=1;boundedLbl=1;backgroundOutline=1;size=15;" vertex="1" parent="gmuw4k_-zvjLaqUktoZQ-28">
          <mxGeometry x="200" y="340" width="100" height="90" as="geometry" />
        </mxCell>
        <mxCell id="gmuw4k_-zvjLaqUktoZQ-6" value="Transform" style="rounded=0;whiteSpace=wrap;html=1;" vertex="1" parent="gmuw4k_-zvjLaqUktoZQ-28">
          <mxGeometry x="20" y="60" width="120" height="60" as="geometry" />
        </mxCell>
        <mxCell id="gmuw4k_-zvjLaqUktoZQ-1" value="Web Service" style="rounded=0;whiteSpace=wrap;html=1;" vertex="1" parent="gmuw4k_-zvjLaqUktoZQ-28">
          <mxGeometry x="20" y="195" width="120" height="60" as="geometry" />
        </mxCell>
        <mxCell id="gmuw4k_-zvjLaqUktoZQ-7" value="" style="edgeStyle=orthogonalEdgeStyle;rounded=0;orthogonalLoop=1;jettySize=auto;html=1;" edge="1" parent="gmuw4k_-zvjLaqUktoZQ-28" source="gmuw4k_-zvjLaqUktoZQ-1" target="gmuw4k_-zvjLaqUktoZQ-6">
          <mxGeometry relative="1" as="geometry" />
        </mxCell>
        <mxCell id="gmuw4k_-zvjLaqUktoZQ-8" style="edgeStyle=orthogonalEdgeStyle;rounded=0;orthogonalLoop=1;jettySize=auto;html=1;" edge="1" parent="gmuw4k_-zvjLaqUktoZQ-28" source="gmuw4k_-zvjLaqUktoZQ-6" target="gmuw4k_-zvjLaqUktoZQ-1">
          <mxGeometry relative="1" as="geometry">
            <Array as="points">
              <mxPoint x="90" y="140" />
              <mxPoint x="90" y="140" />
            </Array>
          </mxGeometry>
        </mxCell>
        <mxCell id="gmuw4k_-zvjLaqUktoZQ-4" value="MQ Server" style="rounded=0;whiteSpace=wrap;html=1;" vertex="1" parent="gmuw4k_-zvjLaqUktoZQ-28">
          <mxGeometry x="194" y="195" width="120" height="60" as="geometry" />
        </mxCell>
        <mxCell id="gmuw4k_-zvjLaqUktoZQ-13" style="edgeStyle=orthogonalEdgeStyle;rounded=0;orthogonalLoop=1;jettySize=auto;html=1;" edge="1" parent="gmuw4k_-zvjLaqUktoZQ-28" source="gmuw4k_-zvjLaqUktoZQ-1" target="gmuw4k_-zvjLaqUktoZQ-4">
          <mxGeometry relative="1" as="geometry" />
        </mxCell>
        <mxCell id="gmuw4k_-zvjLaqUktoZQ-5" value="ETL" style="rounded=0;whiteSpace=wrap;html=1;" vertex="1" parent="gmuw4k_-zvjLaqUktoZQ-28">
          <mxGeometry x="360" y="195" width="120" height="60" as="geometry" />
        </mxCell>
        <mxCell id="gmuw4k_-zvjLaqUktoZQ-14" style="edgeStyle=orthogonalEdgeStyle;rounded=0;orthogonalLoop=1;jettySize=auto;html=1;" edge="1" parent="gmuw4k_-zvjLaqUktoZQ-28" source="gmuw4k_-zvjLaqUktoZQ-4" target="gmuw4k_-zvjLaqUktoZQ-5">
          <mxGeometry relative="1" as="geometry" />
        </mxCell>
        <mxCell id="gmuw4k_-zvjLaqUktoZQ-30" value="SAP" style="swimlane;fontSize=23;startSize=50;" vertex="1" parent="1">
          <mxGeometry x="610" y="170" width="200" height="460" as="geometry">
            <mxRectangle x="610" y="170" width="90" height="50" as="alternateBounds" />
          </mxGeometry>
        </mxCell>
        <mxCell id="gmuw4k_-zvjLaqUktoZQ-2" value="RFC" style="rounded=0;whiteSpace=wrap;html=1;fontSize=18;" vertex="1" parent="gmuw4k_-zvjLaqUktoZQ-30">
          <mxGeometry x="40" y="135" width="120" height="190" as="geometry" />
        </mxCell>
        <mxCell id="gmuw4k_-zvjLaqUktoZQ-11" style="edgeStyle=orthogonalEdgeStyle;rounded=0;orthogonalLoop=1;jettySize=auto;html=1;" edge="1" parent="1" source="gmuw4k_-zvjLaqUktoZQ-1" target="gmuw4k_-zvjLaqUktoZQ-10">
          <mxGeometry relative="1" as="geometry">
            <Array as="points">
              <mxPoint x="30" y="390" />
              <mxPoint x="30" y="390" />
            </Array>
          </mxGeometry>
        </mxCell>
        <mxCell id="gmuw4k_-zvjLaqUktoZQ-16" style="edgeStyle=orthogonalEdgeStyle;rounded=0;orthogonalLoop=1;jettySize=auto;html=1;" edge="1" parent="1" source="gmuw4k_-zvjLaqUktoZQ-2" target="gmuw4k_-zvjLaqUktoZQ-1">
          <mxGeometry relative="1" as="geometry">
            <Array as="points">
              <mxPoint x="180" y="470" />
            </Array>
          </mxGeometry>
        </mxCell>
        <mxCell id="gmuw4k_-zvjLaqUktoZQ-25" style="edgeStyle=orthogonalEdgeStyle;rounded=0;orthogonalLoop=1;jettySize=auto;html=1;" edge="1" parent="1" source="gmuw4k_-zvjLaqUktoZQ-2" target="gmuw4k_-zvjLaqUktoZQ-21">
          <mxGeometry relative="1" as="geometry">
            <Array as="points">
              <mxPoint x="710" y="570" />
            </Array>
          </mxGeometry>
        </mxCell>
        <mxCell id="gmuw4k_-zvjLaqUktoZQ-18" value="" style="edgeStyle=orthogonalEdgeStyle;rounded=0;orthogonalLoop=1;jettySize=auto;html=1;" edge="1" parent="1" source="gmuw4k_-zvjLaqUktoZQ-5" target="gmuw4k_-zvjLaqUktoZQ-2">
          <mxGeometry relative="1" as="geometry">
            <Array as="points">
              <mxPoint x="620" y="395" />
              <mxPoint x="620" y="395" />
            </Array>
          </mxGeometry>
        </mxCell>
        <mxCell id="gmuw4k_-zvjLaqUktoZQ-26" style="edgeStyle=orthogonalEdgeStyle;rounded=0;orthogonalLoop=1;jettySize=auto;html=1;entryX=0;entryY=0;entryDx=0;entryDy=60;entryPerimeter=0;" edge="1" parent="1" source="gmuw4k_-zvjLaqUktoZQ-9" target="gmuw4k_-zvjLaqUktoZQ-21">
          <mxGeometry relative="1" as="geometry">
            <Array as="points">
              <mxPoint x="-220" y="570" />
            </Array>
          </mxGeometry>
        </mxCell>
      </root>
    </mxGraphModel>
  </diagram>
</mxfile>
